<?xml version="1.0" standalone="no"?>
<!DOCTYPE svg PUBLIC "-//W3C//DTD SVG 20010904//EN"
 "http://www.w3.org/TR/2001/REC-SVG-20010904/DTD/svg10.dtd">
<svg version="1.0" xmlns="http://www.w3.org/2000/svg"
 width="1000.000000pt" height="118.000000pt" viewBox="0 0 1000.000000 118.000000"
 preserveAspectRatio="xMidYMid meet">

<g transform="translate(0.000000,118.000000) scale(0.100000,-0.100000)"
fill="#DDFFBB" stroke="none">
<path d="M5155 1156 c-177 -43 -317 -195 -345 -376 -13 -84 -13 -297 1 -380
29 -187 174 -341 357 -379 69 -14 426 -14 494 0 193 41 335 199 358 401 23
201 6 387 -45 494 -58 121 -179 215 -313 243 -72 15 -442 13 -507 -3z m528
-210 c52 -26 96 -72 121 -126 19 -40 21 -64 21 -225 0 -127 -4 -191 -14 -219
-19 -54 -77 -115 -136 -142 -47 -23 -61 -24 -256 -24 -130 0 -219 4 -240 12
-61 20 -114 64 -144 120 l-30 53 0 195 0 195 30 53 c29 54 82 99 140 120 19 7
110 10 250 9 193 -2 225 -4 258 -21z"/>
<path d="M7861 1154 c-125 -34 -234 -122 -289 -234 -43 -88 -52 -145 -52 -330
0 -185 9 -242 52 -330 57 -117 162 -201 295 -235 81 -21 445 -21 526 0 169 44
288 163 332 332 21 79 21 387 0 466 -44 169 -163 288 -332 332 -79 21 -454 20
-532 -1z m544 -211 c52 -28 89 -68 114 -123 18 -40 21 -65 21 -230 0 -165 -3
-190 -21 -230 -25 -55 -62 -95 -114 -123 -37 -20 -57 -22 -251 -25 -129 -2
-227 1 -251 7 -57 16 -117 63 -150 118 l-28 48 0 205 0 205 28 47 c15 26 43
59 62 74 66 50 92 54 330 51 204 -2 223 -4 260 -24z"/>
<path d="M43 1138 c3 -13 47 -252 97 -533 50 -280 96 -523 102 -538 21 -53 95
-73 141 -37 14 11 112 162 217 335 106 173 193 315 195 315 2 0 90 -142 195
-315 105 -173 203 -324 217 -335 46 -36 120 -17 141 37 7 15 53 258 103 538
49 281 93 520 96 533 5 22 4 22 -96 22 -56 0 -101 -1 -101 -2 -1 -2 -31 -169
-69 -373 -37 -203 -71 -370 -76 -370 -5 0 -80 115 -167 255 -87 140 -169 265
-183 278 -32 27 -84 29 -115 4 -12 -10 -95 -134 -184 -276 -89 -142 -166 -259
-171 -260 -5 0 -39 166 -76 369 -38 204 -68 371 -69 373 0 1 -45 2 -101 2
-100 0 -101 0 -96 -22z"/>
<path d="M1803 1149 c-17 -5 -41 -21 -53 -36 -21 -26 -21 -33 -18 -457 l3
-431 30 -54 c31 -57 87 -104 153 -131 30 -11 118 -15 440 -18 l402 -3 0 100 0
100 -396 3 -396 3 -19 24 c-18 22 -19 43 -19 367 l0 344 415 0 415 0 0 100 0
100 -462 -1 c-255 0 -477 -5 -495 -10z"/>
<path d="M3562 1149 c-20 -6 -41 -22 -52 -42 -19 -31 -20 -53 -20 -559 l0
-528 100 0 100 0 0 470 0 470 354 0 c318 0 355 -2 367 -17 21 -25 17 -208 -4
-250 -24 -46 -76 -81 -137 -93 -29 -5 -151 -10 -271 -10 l-219 0 0 -95 0 -95
73 0 72 0 220 -190 220 -190 148 0 c81 0 147 2 147 4 0 2 -96 87 -212 188
l-213 183 60 7 c123 16 239 97 292 206 26 53 28 67 31 201 3 117 1 151 -13
188 -23 60 -70 112 -125 137 -43 20 -63 21 -465 23 -252 1 -433 -2 -453 -8z"/>
<path d="M6313 1153 c-12 -2 -34 -18 -48 -34 l-25 -31 0 -502 0 -503 26 -26
c16 -16 42 -28 68 -32 23 -4 224 -5 446 -3 l405 3 54 30 c101 56 144 163 123
306 -16 110 -57 184 -137 247 l-27 21 33 67 c29 59 34 79 37 165 3 60 0 111
-8 134 -17 51 -76 114 -130 139 -43 20 -62 21 -420 23 -206 0 -385 -1 -397 -4z
m755 -225 c17 -36 6 -119 -22 -160 -48 -71 -54 -73 -297 -76 l-219 -3 0 -100
0 -99 252 0 c234 0 255 -1 294 -21 57 -27 85 -74 91 -153 9 -102 31 -97 -380
-94 l-352 3 -3 355 c-1 195 0 361 3 368 3 10 71 12 312 10 l308 -3 13 -27z"/>
<path d="M8850 1060 l0 -100 230 0 230 0 0 -470 0 -470 95 0 95 0 2 468 3 467
228 3 227 2 0 100 0 100 -555 0 -555 0 0 -100z"/>
<path d="M2020 590 l0 -100 320 0 320 0 0 100 0 100 -320 0 -320 0 0 -100z"/>
</g>
</svg>
