<?xml version="1.0" standalone="no"?>
<!DOCTYPE svg PUBLIC "-//W3C//DTD SVG 20010904//EN"
 "http://www.w3.org/TR/2001/REC-SVG-20010904/DTD/svg10.dtd">
<svg version="1.0" xmlns="http://www.w3.org/2000/svg"
 width="600.000000pt" height="420.000000pt" viewBox="0 0 920.000000 420.000000"
 preserveAspectRatio="xMidYMid meet">

<g transform="translate(0.000000,420.000000) scale(0.100000,-0.100000)"
fill="#000000" stroke="none">
<path d="M2390 3340 c-63 -11 -100 -27 -100 -43 0 -8 -12 -19 -26 -26 -22 -10
-25 -16 -21 -40 4 -20 2 -31 -9 -35 -8 -3 -19 -17 -26 -31 -6 -14 -16 -25 -21
-25 -5 0 -31 20 -58 45 -67 63 -126 72 -167 25 -9 -11 -20 -20 -25 -20 -5 0
-4 6 2 13 29 35 -466 -96 -1064 -282 -55 -17 -110 -31 -122 -31 -12 0 -57 -11
-100 -25 -43 -13 -114 -30 -158 -36 -119 -16 -372 -58 -435 -72 l-55 -12 -3
-218 c-2 -205 -1 -218 15 -213 33 10 176 46 185 46 4 0 8 -6 8 -13 0 -9 -37
-21 -105 -37 -95 -21 -105 -25 -105 -45 0 -22 1 -22 58 -9 31 8 73 13 92 13
27 -1 13 -7 -57 -27 -55 -16 -93 -32 -93 -39 0 -17 9 -16 81 2 33 9 64 13 69
10 6 -3 10 -1 10 5 0 6 12 9 28 7 15 -2 33 0 39 5 9 7 16 3 23 -17 15 -39 14
-40 -32 -39 -24 1 -47 -1 -53 -4 -5 -4 -19 -8 -30 -10 -29 -5 -50 -10 -50 -12
0 -1 -8 -3 -17 -6 -10 -2 -26 -6 -35 -8 -10 -3 -21 -5 -25 -5 -9 -1 -11 -191
-2 -191 9 0 277 92 296 101 13 7 23 -2 47 -41 38 -62 38 -68 4 -76 -16 -4 -44
-15 -63 -24 -19 -9 -92 -37 -162 -61 l-128 -44 0 -47 c0 -27 3 -48 6 -48 3 0
58 24 122 54 186 86 271 108 337 88 l30 -9 -30 -8 c-16 -5 -59 -22 -95 -39
-75 -35 -92 -41 -68 -26 9 6 15 19 13 30 -2 11 1 20 7 20 5 0 8 -7 4 -15 -3
-8 -2 -15 3 -15 5 0 11 9 14 20 3 11 11 20 19 19 10 0 10 -2 1 -6 -7 -2 -13
-9 -13 -15 0 -7 5 -7 13 1 8 6 16 9 18 7 2 -3 15 4 29 15 23 18 23 19 3 9 -18
-8 -23 -8 -23 2 0 8 -3 9 -8 3 -4 -5 -20 -11 -37 -13 -46 -4 -110 -29 -107
-42 1 -6 -4 -21 -13 -33 -8 -12 -15 -16 -15 -9 0 7 -5 10 -12 6 -7 -5 -5 -11
7 -21 11 -7 14 -14 7 -14 -21 -2 -27 -4 -37 -11 -16 -10 -146 -58 -157 -58 -5
0 -6 5 -3 10 4 6 11 7 17 4 6 -4 8 -2 5 4 -5 6 0 8 13 5 15 -4 18 -1 15 16 -2
12 1 21 7 21 5 0 8 -7 4 -15 -3 -8 -1 -15 4 -15 9 0 15 22 11 43 -1 5 4 5 10
1 8 -4 9 -3 5 5 -5 8 -15 6 -34 -8 -15 -10 -29 -19 -32 -19 -3 -1 -13 -4 -23
-8 -15 -5 -16 -9 -5 -15 7 -5 8 -9 2 -9 -6 0 -12 -20 -12 -45 -1 -25 2 -45 6
-45 5 0 75 25 157 55 88 33 155 53 166 50 25 -8 89 13 89 29 0 7 23 20 51 29
50 16 52 15 69 -5 15 -19 20 -20 49 -10 49 17 71 -6 34 -34 -12 -9 -14 -13 -5
-14 9 0 11 -7 7 -19 -4 -14 0 -23 14 -30 11 -6 22 -20 26 -30 5 -16 14 -19 48
-16 76 5 155 63 142 104 -8 26 11 28 24 2 24 -44 122 -29 177 27 26 27 31 38
25 55 -5 12 -6 28 -4 34 3 7 -2 16 -11 19 -9 3 -16 13 -16 21 0 7 -7 13 -16
11 -33 -6 -23 18 13 31 32 12 38 12 48 -3 7 -9 26 -16 46 -16 49 0 114 48 104
77 -2 7 23 32 55 55 40 28 59 47 55 57 -7 25 267 150 475 216 430 139 503 168
538 215 12 16 25 51 29 77 3 27 11 51 17 55 19 13 56 9 62 -7 4 -8 17 -15 30
-15 14 0 41 7 61 15 45 19 82 19 89 1 3 -8 62 -65 130 -126 131 -117 213 -166
262 -157 22 4 37 -7 101 -72 42 -42 108 -101 148 -131 39 -30 76 -64 81 -76
12 -24 5 -75 -12 -89 -6 -5 -17 -18 -25 -28 -12 -15 -12 -17 3 -11 14 5 12 -5
-10 -67 -14 -41 -31 -79 -36 -86 -5 -7 -5 -13 0 -17 13 -8 22 4 22 29 0 12 7
30 15 41 13 17 14 17 15 2 0 -9 -5 -40 -11 -69 -13 -58 -3 -73 41 -62 36 8 47
19 95 92 49 74 52 56 -33 179 -62 89 -68 112 -43 153 12 19 21 32 22 29 6 -38
4 -58 -10 -75 -16 -20 -16 -20 6 -2 20 18 26 58 10 74 -14 13 -6 33 13 33 11
0 20 -5 20 -10 0 -6 23 -32 50 -57 54 -49 59 -65 13 -38 l-28 17 25 -20 c14
-12 33 -20 43 -19 13 1 36 -23 73 -76 31 -44 50 -76 44 -72 -6 4 -24 24 -39
46 -32 43 -48 42 -26 -2 26 -48 16 -46 -17 5 l-32 48 -23 -28 c-13 -16 -26
-39 -29 -52 -9 -32 22 -97 64 -133 53 -47 73 -53 115 -36 50 21 81 84 74 148
-7 57 -54 164 -102 230 -27 37 -34 56 -29 74 4 15 1 32 -7 42 -9 11 -9 14 -2
10 21 -13 46 53 51 136 l5 78 21 -42 c11 -24 44 -65 71 -93 28 -27 49 -56 47
-63 -1 -7 4 -26 13 -43 11 -21 14 -42 10 -62 -5 -21 -4 -28 4 -24 6 4 11 3 11
-3 0 -5 -5 -11 -11 -13 -15 -5 14 -98 41 -130 12 -16 16 -33 13 -54 -3 -17 0
-41 7 -53 9 -17 9 -26 -1 -37 -8 -10 -8 -14 0 -14 14 0 14 -33 0 -47 -8 -8 -9
-30 -3 -70 l8 -58 10 85 c9 72 14 85 31 89 15 2 17 0 9 -10 -8 -10 -8 -45 -2
-114 8 -85 7 -101 -6 -111 -14 -10 -14 -13 2 -28 27 -23 69 -20 86 7 14 22 41
214 41 295 -1 24 -5 46 -10 50 -24 17 -65 122 -64 164 2 63 12 101 29 106 12
4 13 3 3 -10 -18 -22 -3 -145 22 -184 8 -13 15 -35 15 -48 0 -17 11 -33 30
-48 37 -27 38 -45 5 -60 -24 -11 -24 -13 -10 -34 8 -13 12 -29 9 -37 -3 -8 -1
-18 5 -22 6 -3 11 1 11 9 0 9 7 16 15 16 9 0 12 -6 9 -15 -7 -17 7 -20 23 -4
8 8 11 -6 9 -50 -1 -54 -3 -59 -15 -44 -12 17 -13 17 -7 -2 27 -97 34 -171 14
-159 -14 9 10 -26 27 -38 20 -15 64 -8 74 11 12 22 18 361 7 379 -4 6 -8 38
-10 69 -4 55 -20 102 -88 253 -14 30 -28 63 -32 74 -5 16 -9 16 -24 5 -15 -13
-16 -12 -3 4 15 19 14 22 -31 115 l-26 52 24 6 c18 5 29 -1 50 -25 30 -37 41
-39 46 -9 5 33 28 35 28 1 0 -15 10 -46 21 -68 16 -30 17 -36 5 -26 -9 8 -16
9 -16 3 0 -15 80 -82 118 -98 23 -10 32 -21 32 -38 0 -20 27 -56 42 -56 3 0 8
9 11 20 3 11 10 20 16 20 14 0 15 -47 1 -55 -32 -20 17 -111 105 -194 49 -46
59 -52 92 -49 31 3 38 7 45 33 6 24 0 43 -37 111 -25 45 -45 92 -45 104 0 28
-57 130 -73 130 -8 0 -8 3 0 11 14 14 0 39 -63 114 -43 51 -166 160 -181 160
-4 0 -24 15 -43 33 -19 18 -89 60 -155 93 -106 54 -120 64 -122 87 -2 40 -47
134 -77 161 l-26 24 0 -24 c0 -14 6 -31 13 -38 10 -11 7 -12 -13 -6 -14 4 -35
13 -47 21 -12 8 -29 14 -37 14 -9 0 -20 9 -27 21 -8 16 -18 20 -41 17 -26 -4
-29 -2 -24 17 6 24 -37 77 -58 73 -6 -1 -49 13 -96 31 -102 40 -171 61 -310
96 -89 23 -110 32 -146 65 -79 73 -138 88 -175 46 -20 -23 -22 -23 -82 -10
-73 15 -97 23 -97 33 0 4 -11 13 -25 19 -15 7 -25 8 -25 2 0 -6 -11 -10 -25
-10 -26 0 -34 15 -12 23 22 10 -15 26 -73 32 -30 4 -67 9 -82 11 -17 3 -28 1
-28 -5 0 -9 63 -17 93 -12 4 1 1 -10 -8 -23 -15 -23 -18 -23 -58 -11 -34 10
-42 17 -40 34 2 11 -1 20 -5 20 -4 -1 -27 -5 -52 -9z m130 -107 c13 -13 13
-16 -3 -28 -18 -13 -53 -10 -63 6 -3 5 -2 18 1 30 7 22 38 19 65 -8z m505 -8
c30 -19 55 -40 55 -47 0 -6 -10 -2 -23 10 -13 12 -47 31 -76 41 -45 16 -52 27
-18 30 4 1 32 -15 62 -34z m-10 -26 c7 -7 1 -8 -20 -3 -46 11 -67 26 -25 19
19 -3 39 -10 45 -16z m-552 -89 c50 0 107 -12 102 -20 -3 -5 -32 -6 -65 -3
-39 4 -60 2 -60 -5 0 -6 -2 -17 -6 -25 -4 -11 9 -16 58 -22 57 -7 60 -8 35
-17 -18 -7 -38 -6 -58 1 l-31 11 4 -44 c2 -35 0 -42 -9 -34 -7 6 -13 21 -13
34 0 12 -4 26 -10 29 -5 3 -10 22 -10 41 0 19 5 34 10 34 6 0 11 28 12 63 l2
62 3 -52 c4 -52 5 -53 36 -53z m433 71 c5 -5 36 -23 68 -40 47 -25 54 -31 33
-31 -14 0 -32 6 -39 13 -30 29 -64 47 -90 47 -16 0 -28 5 -28 10 0 12 43 13
56 1z m-1023 -11 c-12 -5 -58 -16 -103 -24 -44 -9 -116 -25 -159 -36 -44 -11
-83 -20 -88 -19 -39 3 287 88 337 88 30 0 32 -1 13 -9z m1168 -8 c-7 -2 -18 1
-23 6 -8 8 -4 9 13 5 13 -4 18 -8 10 -11z m-1121 -16 c0 -20 -33 -25 -50 -8
-13 14 -12 15 3 9 9 -3 17 -2 17 3 0 6 7 10 15 10 8 0 15 -6 15 -14z m1125 -6
c3 -5 1 -10 -4 -10 -6 0 -11 5 -11 10 0 6 2 10 4 10 3 0 8 -4 11 -10z m-1205
-29 c-8 -5 -49 -14 -90 -21 -59 -10 -273 -63 -545 -136 -15 -4 -17 -3 -5 4 23
15 403 123 500 143 93 19 165 24 140 10z m1506 -22 c48 -12 56 -24 23 -32 -37
-10 -76 3 -88 30 -10 22 -10 25 5 19 9 -3 36 -11 60 -17z m-1366 1 c0 -5 -2
-10 -4 -10 -3 0 -8 5 -11 10 -3 6 -1 10 4 10 6 0 11 -4 11 -10z m257 -27 c-3
-10 -5 -4 -5 12 0 17 2 24 5 18 2 -7 2 -21 0 -30z m1013 27 c12 -8 11 -10 -5
-9 -11 1 -33 5 -50 9 l-30 8 35 1 c19 0 42 -4 50 -9z m-1743 -6 c-3 -3 -12 -4
-19 -1 -8 3 -5 6 6 6 11 1 17 -2 13 -5z m823 -18 c0 -26 -37 -79 -50 -71 -11
7 0 78 14 87 21 14 36 8 36 -16z m-418 -11 c3 -14 1 -28 -3 -31 -5 -3 -9 9 -9
25 0 38 6 40 12 6z m1050 3 c-7 -7 -12 -8 -12 -2 0 6 3 14 7 17 3 4 9 5 12 2
2 -3 -1 -11 -7 -17z m-1525 6 c-3 -3 -12 -4 -19 -1 -8 3 -5 6 6 6 11 1 17 -2
13 -5z m1595 -6 c14 -11 15 -18 5 -46 -16 -47 -29 -41 -31 13 -1 48 2 52 26
33z m-1247 -9 c11 -17 -1 -21 -15 -4 -8 9 -8 15 -2 15 6 0 14 -5 17 -11z
m-418 -5 c-3 -3 -12 -4 -19 -1 -8 3 -5 6 6 6 11 1 17 -2 13 -5z m-40 -10 c-3
-3 -12 -4 -19 -1 -8 3 -5 6 6 6 11 1 17 -2 13 -5z m437 -36 c-8 -12 -34 11
-34 30 0 13 3 12 20 -3 11 -10 17 -22 14 -27z m456 -43 c0 -23 -3 -27 -10 -15
-5 8 -10 29 -10 45 0 23 3 27 10 15 5 -8 10 -28 10 -45z m705 34 c35 -10 44
-18 47 -40 3 -19 0 -25 -9 -22 -7 3 -10 10 -6 16 3 5 1 7 -5 3 -6 -3 -34 3
-62 14 -56 22 -104 25 -147 10 l-28 -10 25 19 c37 29 107 33 185 10z m65 11
c0 -5 -4 -10 -10 -10 -5 0 -10 5 -10 10 0 6 5 10 10 10 6 0 10 -4 10 -10z
m-913 -22 c-3 -8 -6 -5 -6 6 -1 11 2 17 5 13 3 -3 4 -12 1 -19z m653 15 c-8
-3 -30 -12 -47 -19 -18 -7 -33 -11 -33 -8 0 7 63 33 80 33 13 -1 13 -1 0 -6z
m-545 -32 c-3 -5 -1 -12 5 -16 16 -10 11 -37 -12 -62 -28 -30 -34 -29 -51 6
-17 33 -12 45 23 56 24 8 24 8 5 16 -17 6 -16 8 8 8 16 1 26 -3 22 -8z m-249
-33 c26 -30 26 -31 2 -9 -16 14 -31 20 -39 15 -9 -5 -7 -9 7 -15 19 -7 19 -7
-1 -14 -11 -4 -45 -17 -75 -29 -61 -26 -126 -44 -280 -81 -104 -25 -215 -64
-318 -111 -61 -28 -117 -32 -126 -8 -9 25 -7 56 4 49 5 -3 74 15 152 40 79 25
195 60 258 76 181 47 291 80 335 100 52 23 47 24 81 -13z m708 1 c-8 -14 14
-29 44 -29 24 0 107 -51 129 -79 7 -9 13 -12 13 -8 0 13 26 -16 43 -48 20 -40
137 -166 147 -160 4 3 11 -6 14 -20 4 -14 13 -25 21 -25 12 0 12 -4 0 -27 -8
-14 -17 -43 -20 -63 -5 -27 -11 -37 -23 -36 -11 1 -18 -8 -20 -24 -7 -45 -20
-52 -60 -31 -42 22 -98 79 -164 166 -25 33 -66 79 -91 103 -60 55 -90 121 -84
185 4 41 2 45 -11 35 -12 -11 -12 -7 1 19 16 30 41 52 60 53 5 0 5 -5 1 -11z
m-93 -25 c5 -15 8 -29 5 -31 -2 -2 -8 10 -14 26 -13 38 -5 41 9 5z m-1636 -14
c-3 -5 -14 -10 -23 -9 -14 0 -13 2 3 9 27 11 27 11 20 0z m1102 -22 c-3 -7 -5
-2 -5 12 0 14 2 19 5 13 2 -7 2 -19 0 -25z m90 10 c-3 -8 -6 -5 -6 6 -1 11 2
17 5 13 3 -3 4 -12 1 -19z m381 -24 c2 -37 1 -38 -13 -20 -18 24 -20 69 -2 64
6 -3 13 -22 15 -44z m496 15 c49 -33 136 -126 148 -160 7 -18 4 -21 -24 -23
-7 -1 -18 -10 -24 -20 -10 -17 -12 -15 -18 17 -5 29 -25 53 -96 119 -50 45
-90 86 -90 90 0 19 61 5 104 -23z m-1034 -9 c12 -16 17 -30 11 -30 -5 0 -13 5
-16 11 -4 6 -14 7 -24 4 -9 -4 -20 -8 -26 -9 -5 -1 -28 -10 -49 -20 -22 -9
-46 -14 -53 -11 -8 2 -11 0 -8 -5 5 -9 -16 -14 -52 -13 -7 1 -13 -3 -13 -9 0
-5 -4 -7 -9 -3 -5 3 -13 1 -16 -5 -5 -8 -12 -7 -23 2 -9 7 -13 8 -10 3 4 -6
-20 -18 -57 -29 -65 -19 -83 -19 -77 -1 2 5 0 6 -5 2 -4 -5 -8 -13 -8 -19 0
-6 -18 -17 -40 -25 -22 -7 -62 -25 -89 -39 -27 -14 -57 -23 -67 -21 -11 3 -16
1 -13 -4 3 -5 -8 -12 -25 -15 -17 -4 -31 -12 -31 -18 0 -6 -5 -4 -10 4 -8 13
-10 13 -10 -2 0 -10 -14 -21 -36 -28 -33 -11 -36 -15 -31 -44 5 -29 4 -28 -12
9 -36 79 -36 85 -3 85 16 0 74 20 128 44 123 54 209 83 394 131 80 21 167 49
195 62 27 12 53 23 57 23 4 0 16 -13 28 -30z m1627 24 c-3 -3 -12 -4 -19 -1
-8 3 -5 6 6 6 11 1 17 -2 13 -5z m43 -14 c8 -5 11 -10 5 -10 -5 0 -17 5 -25
10 -8 5 -10 10 -5 10 6 0 17 -5 25 -10z m-1370 -70 c0 -5 -6 -10 -14 -10 -8 0
-18 5 -21 10 -3 6 3 10 14 10 12 0 21 -4 21 -10z m-1773 -6 c-3 -3 -12 -4 -19
-1 -8 3 -5 6 6 6 11 1 17 -2 13 -5z m152 -24 c-93 -41 -337 -109 -390 -109
-24 1 -56 -4 -71 -10 -16 -6 -28 -7 -28 -2 0 4 35 19 78 31 99 30 442 118 462
119 8 0 -15 -13 -51 -29z m-192 14 c-3 -3 -12 -4 -19 -1 -8 3 -5 6 6 6 11 1
17 -2 13 -5z m603 -44 c0 -5 -2 -10 -4 -10 -3 0 -8 5 -11 10 -3 6 -1 10 4 10
6 0 11 -4 11 -10z m2895 -10 c3 -5 1 -10 -4 -10 -6 0 -11 5 -11 10 0 6 2 10 4
10 3 0 8 -4 11 -10z m-1465 -15 c0 -8 -4 -15 -10 -15 -5 0 -10 7 -10 15 0 8 5
15 10 15 6 0 10 -7 10 -15z m1200 11 c0 -3 -4 -8 -10 -11 -5 -3 -10 -1 -10 4
0 6 5 11 10 11 6 0 10 -2 10 -4z m-1536 -36 c15 -31 9 -39 -12 -18 -11 11 -17
48 -8 48 3 0 11 -13 20 -30z m1433 24 c-3 -3 -12 -4 -19 -1 -8 3 -5 6 6 6 11
1 17 -2 13 -5z m-2519 -30 c12 -4 22 -10 22 -15 0 -5 -11 -7 -24 -3 -28 7 -89
-14 -242 -82 -86 -38 -101 -49 -97 -65 3 -10 3 -19 0 -19 -8 0 -38 102 -32
108 2 3 9 -7 14 -22 6 -14 13 -26 16 -26 3 0 29 12 58 27 53 28 234 101 252
102 6 0 20 -2 33 -5z m1058 -109 c16 -30 25 -59 21 -69 -6 -16 -8 -16 -34 1
-15 10 -24 13 -20 7 10 -18 -154 -76 -361 -128 -101 -26 -200 -53 -220 -62
-21 -9 -60 -16 -88 -15 -44 2 -55 -2 -71 -23 l-20 -25 -22 22 c-13 12 -4 -5
18 -37 45 -65 51 -95 23 -113 -17 -10 -19 -8 -19 18 0 19 -19 58 -55 112 -68
100 -86 133 -66 122 7 -5 21 -15 31 -23 16 -15 17 -13 15 18 -2 27 2 36 21 46
14 7 31 25 39 39 7 15 19 24 27 21 7 -2 39 2 72 10 32 8 67 16 78 18 64 12 86
18 145 38 36 13 76 31 90 40 14 9 45 19 70 23 25 4 60 13 78 21 18 7 55 12 82
10 38 -3 53 0 66 15 17 19 18 19 45 -7 16 -15 40 -50 55 -79z m1074 101 c0 -5
-75 -56 -84 -56 -15 0 7 21 42 40 41 21 42 22 42 16z m-2148 -47 c-9 -9 -225
-99 -237 -99 -19 0 33 30 80 47 45 15 48 17 25 23 l-25 7 27 8 c16 4 35 4 43
1 11 -4 14 -2 9 6 -5 8 0 9 15 5 13 -3 20 -3 17 0 -3 3 2 12 11 18 12 9 20 9
29 1 7 -6 9 -14 6 -17z m2362 -9 c-5 -5 -10 3 -11 18 -1 22 0 24 9 8 6 -10 6
-22 2 -26z m-3267 24 c-3 -3 -12 -4 -19 -1 -8 3 -5 6 6 6 11 1 17 -2 13 -5z
m3599 -19 c-23 -17 -36 -19 -36 -6 0 5 8 12 18 14 32 9 37 6 18 -8z m109 5 c3
-5 1 -10 -4 -10 -6 0 -11 5 -11 10 0 6 2 10 4 10 3 0 8 -4 11 -10z m111 -25
c38 -19 62 -35 53 -35 -9 0 -37 11 -63 25 -26 14 -53 25 -61 25 -8 0 -17 5
-20 10 -12 19 21 10 91 -25z m-841 -23 c-7 -8 -35 7 -35 18 0 6 7 6 20 -2 10
-7 17 -14 15 -16z m651 13 c-11 -8 -31 -15 -45 -14 -21 0 -19 3 14 14 52 17
53 17 31 0z m-2677 -24 c14 -12 19 -25 14 -36 -4 -13 -3 -16 5 -11 7 4 12 2
12 -3 0 -13 -17 -14 -24 -2 -10 15 -55 19 -67 5 -6 -8 -15 -11 -20 -8 -5 3 -9
0 -9 -6 0 -6 -4 -8 -10 -5 -5 3 -10 2 -10 -3 0 -5 -13 -15 -30 -22 -16 -7 -30
-16 -30 -21 0 -5 -3 -8 -7 -7 -5 1 -30 -9 -58 -22 -27 -13 -53 -23 -58 -22 -4
1 -10 -12 -14 -28 -3 -17 -15 -36 -27 -42 -21 -11 -21 -10 -3 10 18 19 18 21
-1 59 -28 56 -38 98 -13 53 11 -19 20 -28 21 -20 0 15 53 44 77 43 7 0 11 4
10 11 -1 6 6 10 15 10 10 -1 16 2 13 6 -6 9 144 80 171 80 12 0 31 -8 43 -19z
m2411 9 c18 -12 2 -12 -25 0 -13 6 -15 9 -5 9 8 0 22 -4 30 -9z m370 -23 c0
-5 -4 -5 -10 -2 -5 3 -10 14 -10 23 0 15 2 15 10 2 5 -8 10 -19 10 -23z m-670
8 c-7 -8 -18 -15 -24 -15 -6 0 -2 7 8 15 25 19 32 19 16 0z m-61 -27 c-9 -16
-14 -19 -17 -9 -2 7 2 17 9 22 20 13 21 11 8 -13z m-2534 2 c-3 -5 -18 -9 -33
-9 l-27 1 30 8 c17 4 31 8 33 9 2 0 0 -3 -3 -9z m3035 -13 c-14 -6 -28 -16
-31 -21 -4 -4 -13 -5 -20 0 -9 5 -3 11 22 20 43 16 62 16 29 1z m186 -92 l14
-50 -20 24 c-14 16 -20 37 -19 70 1 25 3 37 6 26 3 -11 11 -42 19 -70z m-616
70 c0 -2 -10 -9 -22 -15 -22 -11 -22 -10 -4 4 21 17 26 19 26 11z m-2962 -29
c6 -13 14 -41 18 -60 5 -30 9 -34 18 -22 6 8 48 25 94 39 79 24 83 24 92 7 13
-25 13 -37 -1 -23 -14 14 -171 -28 -177 -47 -3 -9 1 -11 12 -7 9 4 16 2 16 -2
0 -5 -6 -12 -12 -14 -7 -3 -4 -6 8 -6 11 -1 24 2 28 7 4 4 11 7 14 8 4 0 14 3
22 6 56 22 85 27 94 18 13 -13 11 -14 -71 -39 -86 -25 -91 -26 -115 -4 -24 21
-25 -3 -1 -29 22 -25 63 -21 181 16 19 6 25 2 37 -28 20 -46 19 -47 -10 -36
-15 6 -26 6 -30 -1 -4 -5 -11 -7 -16 -4 -5 4 -9 0 -9 -7 0 -9 -3 -9 -10 2 -7
12 -10 12 -10 1 0 -7 -6 -11 -15 -7 -8 3 -15 1 -15 -5 0 -6 -5 -7 -10 -4 -6 4
-18 1 -26 -6 -12 -10 -16 -9 -21 9 -3 12 -9 22 -14 22 -11 0 -4 -31 23 -109
35 -103 11 -61 -37 64 -27 69 -54 129 -60 133 -22 13 -35 50 -35 101 0 56 18
69 38 27z m382 4 c7 -14 7 -20 0 -20 -5 0 -10 5 -10 10 0 6 -5 10 -11 10 -5 0
-8 -4 -5 -8 3 -5 -5 -8 -16 -8 -15 1 -24 -7 -28 -23 l-5 -24 -13 28 c-15 33
-16 31 28 43 49 14 48 14 60 -8z m2810 -17 c0 -39 -9 -36 -28 10 -10 24 -10
27 8 27 16 0 20 -7 20 -37z m334 -57 c9 -22 15 -41 13 -42 -6 -7 -67 80 -67
96 0 9 6 22 12 28 10 10 14 7 19 -15 3 -15 13 -46 23 -67z m-1544 80 c0 -3 -4
-8 -10 -11 -5 -3 -10 -1 -10 4 0 6 5 11 10 11 6 0 10 -2 10 -4z m874 -11 c-4
-8 -3 -31 0 -50 6 -32 9 -34 28 -24 16 8 19 8 13 -1 -4 -7 -2 -16 5 -20 9 -6
8 -14 -5 -34 -17 -26 -17 -28 5 -59 l23 -32 -23 20 c-33 29 -70 113 -70 162 0
35 4 44 27 52 1 1 0 -6 -3 -14z m222 -100 c21 -38 43 -74 49 -80 6 -5 19 -21
30 -35 17 -21 15 -20 -15 5 -20 17 -55 65 -79 108 -24 42 -49 77 -55 77 -6 0
-24 -7 -40 -15 -36 -19 -36 -19 -36 6 0 14 5 19 14 16 8 -3 27 -2 43 2 35 10
41 5 89 -84z m167 89 c9 -9 -16 -44 -30 -44 -7 0 -13 7 -13 15 0 8 7 15 16 15
8 0 12 5 9 10 -7 11 8 14 18 4z m645 -9 c2 -2 -10 -6 -26 -10 -18 -4 -43 0
-63 9 l-34 15 60 -6 c33 -3 61 -7 63 -8z m-1012 -32 c-11 -11 -19 6 -11 24 8
17 8 17 12 0 3 -10 2 -21 -1 -24z m-2515 -3 c-26 -22 -41 -25 -41 -10 0 6 10
15 23 20 36 14 44 11 18 -10z m1572 13 c12 -11 -115 -61 -250 -99 -70 -20
-163 -47 -206 -60 -43 -14 -83 -21 -90 -18 -7 4 -8 3 -4 -1 4 -5 -13 -17 -38
-27 -44 -17 -45 -17 -79 6 l-34 23 34 1 c47 2 89 13 299 82 99 33 218 68 265
79 104 24 95 22 103 14z m1878 -48 c7 -13 3 -12 -10 5 -11 14 -21 30 -21 35 0
11 14 -7 31 -40z m-549 -2 c3 -21 8 -47 12 -58 5 -14 -2 -10 -23 13 -31 33
-39 52 -21 52 6 0 10 7 10 15 0 31 18 13 22 -22z m108 16 c0 -5 -4 -9 -10 -9
-5 0 -10 7 -10 16 0 8 5 12 10 9 6 -3 10 -10 10 -16z m30 -36 c-11 -17 -11
-17 -6 0 3 10 7 26 7 35 1 15 2 15 6 0 2 -10 -1 -25 -7 -35z m691 6 c24 -22
35 -35 24 -30 -31 16 -91 70 -79 71 6 0 31 -18 55 -41z m-1087 9 c30 -14 51
-34 66 -62 13 -23 32 -51 43 -63 11 -13 17 -29 13 -38 -10 -28 -30 -11 -51 46
-21 56 -38 69 -123 100 -30 11 -31 13 -15 25 22 17 15 18 67 -8z m-2589 -18
c17 -33 19 -44 6 -36 -5 4 -11 3 -13 -1 -2 -5 -18 -21 -36 -38 -22 -19 -31
-24 -27 -12 4 9 0 35 -9 57 -19 48 -20 60 -3 37 11 -15 14 -15 37 3 14 11 26
20 27 20 1 0 9 -13 18 -30z m527 -17 c9 -10 28 -42 42 -70 l26 -53 -21 -21
c-11 -11 -27 -18 -35 -15 -22 9 -340 -81 -409 -114 -33 -17 -88 -46 -122 -65
-34 -19 -92 -42 -129 -52 l-66 -18 -34 39 c-19 22 -34 45 -34 52 0 22 37 39
185 88 77 26 164 61 195 78 149 84 191 105 270 135 99 38 112 39 132 16z
m2713 -53 c12 -19 -14 -10 -42 16 l-28 25 32 -15 c17 -9 35 -20 38 -26z m123
-13 c6 -5 12 -13 12 -18 0 -17 -29 -9 -57 15 l-28 24 30 -5 c17 -3 36 -10 43
-16z m-444 -3 c4 -10 1 -14 -6 -12 -15 5 -23 28 -10 28 5 0 13 -7 16 -16z
m295 3 c8 -10 7 -17 -1 -25 -19 -19 -28 -14 -28 13 0 27 12 32 29 12z m646
-17 c3 -5 1 -10 -4 -10 -6 0 -11 5 -11 10 0 6 2 10 4 10 3 0 8 -4 11 -10z
m-497 -38 c-2 -8 -13 -18 -25 -23 -20 -7 -23 -5 -23 15 0 29 6 35 31 29 11 -3
19 -12 17 -21z m-109 -25 c-10 -21 -15 -24 -30 -16 -26 14 -24 26 9 37 34 12
35 10 21 -21z m521 18 c0 -8 -7 -15 -15 -15 -16 0 -20 12 -8 23 11 12 23 8 23
-8z m-908 -55 l22 -35 -32 29 c-32 29 -42 51 -21 44 5 -2 20 -19 31 -38z
m-125 5 c6 -14 7 -25 2 -25 -6 0 -21 -11 -34 -24 l-24 -24 -22 24 c-12 13 -17
24 -11 24 6 0 16 -8 21 -17 10 -17 10 -16 11 2 0 21 26 65 38 65 4 0 12 -11
19 -25z m1028 14 c-7 -11 -35 -12 -35 -1 0 4 9 8 20 9 11 1 18 -2 15 -8z
m-530 -38 c-3 -10 1 -45 10 -77 19 -74 19 -82 -2 -62 -9 9 -18 29 -19 45 -2
15 -5 41 -8 58 -3 16 0 35 6 42 15 18 20 16 13 -6z m636 -31 c12 -19 14 -26 5
-15 -9 11 -23 28 -32 39 -9 10 -11 17 -4 14 6 -2 20 -19 31 -38z m-46 -61 c15
-22 25 -49 23 -60 -2 -16 -8 -12 -30 22 -25 38 -37 79 -23 79 3 0 16 -18 30
-41z m115 6 c0 -5 -5 -3 -10 5 -5 8 -10 20 -10 25 0 6 5 3 10 -5 5 -8 10 -19
10 -25z m-382 -40 c-3 -3 -9 2 -12 12 -6 14 -5 15 5 6 7 -7 10 -15 7 -18z
m410 -20 c-3 -3 -9 2 -12 12 -6 14 -5 15 5 6 7 -7 10 -15 7 -18z m-3563 -20
c-33 -19 -64 -35 -69 -35 -14 0 -4 7 55 40 75 41 87 37 14 -5z m55 0 c0 -5
-49 -31 -85 -45 -41 -16 -29 -2 23 24 47 25 62 30 62 21z m40 -34 c0 -10 -9
-21 -20 -24 -23 -6 -28 21 -8 41 14 14 28 6 28 -17z m2838 17 c19 -19 14 -30
-8 -18 -11 6 -20 15 -20 20 0 14 14 12 28 -2z m-48 -28 c0 -24 -20 -37 -30
-19 -10 16 7 52 21 44 5 -4 9 -15 9 -25z m-3178 -10 c18 -11 47 -20 63 -21 21
0 -3 -12 -75 -35 -104 -35 -179 -42 -187 -18 -4 11 102 43 155 47 24 1 29 16
10 35 -18 18 -2 14 34 -8z m3413 -30 c14 -16 15 -20 4 -20 -16 0 -39 19 -39
32 0 14 16 9 35 -12z m441 -7 c-7 -7 -26 7 -26 19 0 6 6 6 15 -2 9 -7 13 -15
11 -17z m44 12 c0 -8 -2 -15 -4 -15 -2 0 -6 7 -10 15 -3 8 -1 15 4 15 6 0 10
-7 10 -15z m-920 -32 c0 -32 -5 -28 -14 10 -4 19 -3 26 4 22 5 -3 10 -18 10
-32z m235 17 c4 -6 1 -17 -5 -25 -9 -11 -17 -12 -33 -3 -20 10 -20 11 -2 24
23 17 32 17 40 4z m-565 -3 c0 -2 -15 -16 -32 -33 l-33 -29 29 33 c28 30 36
37 36 29z m275 -17 c3 -5 1 -10 -4 -10 -6 0 -11 5 -11 10 0 6 2 10 4 10 3 0 8
-4 11 -10z m485 -38 c0 -5 -9 -17 -20 -27 -19 -18 -20 -17 -20 3 0 18 11 29
33 31 4 1 7 -3 7 -7z m-126 -46 c-3 -21 -8 -35 -11 -32 -2 2 -1 20 3 40 3 21
8 35 11 32 2 -2 1 -20 -3 -40z m-353 11 c-13 -13 -26 -3 -16 12 3 6 11 8 17 5
6 -4 6 -10 -1 -17z m-3402 -4 c0 -11 -3 -13 -6 -5 -2 6 -10 9 -15 6 -7 -4 -8
-2 -4 4 11 18 26 14 25 -5z m554 2 c4 -8 1 -17 -5 -21 -7 -4 -6 -9 3 -15 18
-11 6 -21 -15 -13 -9 4 -15 13 -12 20 4 11 -1 13 -18 8 -32 -8 -44 14 -14 25
34 14 55 13 61 -4z m-580 -18 c7 4 5 -2 -3 -13 -8 -10 -15 -20 -16 -22 0 -1
-1 12 -1 30 0 18 2 25 4 15 3 -10 9 -14 16 -10z m662 -7 c-3 -5 -10 -10 -16
-10 -5 0 -9 5 -9 10 0 6 7 10 16 10 8 0 12 -4 9 -10z m40 -8 c-18 -15 -65 -32
-65 -23 0 4 10 13 23 19 26 13 55 16 42 4z m2395 -26 c0 -8 -4 -18 -10 -21 -5
-3 -10 3 -10 14 0 12 5 21 10 21 6 0 10 -6 10 -14z m-3315 -45 c-9 -8 -36 -10
-30 -2 2 4 11 8 20 8 8 0 13 -3 10 -6z m649 -2 c-5 -9 1 -10 20 -5 14 3 26 2
26 -3 0 -16 -52 -23 -61 -9 -13 20 -11 28 7 28 9 0 12 -5 8 -11z m253 -5 c-3
-3 -12 -4 -19 -1 -8 3 -5 6 6 6 11 1 17 -2 13 -5z m-232 -74 c19 -8 19 -9 -2
-9 -12 -1 -25 4 -28 9 -7 12 2 12 30 0z m3275 -5 c0 -8 -4 -15 -10 -15 -5 0
-10 7 -10 15 0 8 5 15 10 15 6 0 10 -7 10 -15z m230 -101 c0 -8 -4 -14 -10
-14 -5 0 -10 9 -10 21 0 11 5 17 10 14 6 -3 10 -13 10 -21z"/>
<path d="M1708 2872 c-59 -21 -87 -45 -37 -32 81 22 142 40 147 45 12 12 -66
2 -110 -13z"/>
<path d="M1210 2720 c-8 -5 -10 -10 -5 -10 6 0 17 5 25 10 8 5 11 10 5 10 -5
0 -17 -5 -25 -10z"/>
<path d="M1165 2700 c-3 -6 1 -7 9 -4 18 7 21 14 7 14 -6 0 -13 -4 -16 -10z"/>
<path d="M2622 2823 c2 -14 48 -47 95 -69 7 -3 17 -21 23 -40 10 -30 101 -124
120 -124 4 0 -11 19 -34 43 -51 53 -76 85 -76 96 0 10 -114 111 -125 111 -3 0
-5 -7 -3 -17z"/>
<path d="M2657 2704 c-3 -6 15 -30 39 -54 25 -25 60 -64 77 -87 40 -57 47 -48
7 10 -45 67 -116 142 -123 131z"/>
<path d="M2974 2535 c11 -8 24 -15 30 -15 5 0 1 7 -10 15 -10 8 -23 14 -29 14
-5 0 -1 -6 9 -14z"/>
<path d="M1374 2678 l-19 -23 23 19 c21 18 27 26 19 26 -2 0 -12 -10 -23 -22z"/>
<path d="M1166 2588 c3 -5 10 -6 15 -3 13 9 11 12 -6 12 -8 0 -12 -4 -9 -9z"/>
<path d="M1935 2359 c-3 -4 2 -6 10 -5 21 3 28 13 10 13 -9 0 -18 -4 -20 -8z"/>
<path d="M1511 2247 c2 -1 13 -9 24 -17 19 -14 19 -14 6 3 -7 9 -18 17 -24 17
-6 0 -8 -1 -6 -3z"/>
<path d="M1556 2238 c3 -5 10 -6 15 -3 13 9 11 12 -6 12 -8 0 -12 -4 -9 -9z"/>
<path d="M765 1900 c-8 -13 9 -20 24 -11 10 6 9 10 -3 14 -8 3 -18 2 -21 -3z"/>
<path d="M685 1869 c-4 -6 -5 -12 -2 -15 2 -3 7 2 10 11 7 17 1 20 -8 4z"/>
<path d="M7941 2580 c-1 -20 -3 -22 -11 -10 -8 12 -10 12 -10 1 0 -10 -8 -12
-31 -7 -28 5 -30 4 -18 -10 11 -13 9 -14 -14 -9 -21 6 -27 4 -27 -9 0 -9 -7
-16 -16 -16 -9 0 -24 -8 -33 -18 -26 -30 -52 -38 -124 -40 -27 -1 -46 -6 -42
-11 3 -6 -4 -8 -15 -6 -12 2 -23 -2 -27 -10 -3 -8 -14 -15 -24 -15 -11 0 -22
-7 -26 -16 -6 -16 -50 -39 -67 -35 -5 1 -6 -5 -3 -13 4 -9 3 -15 -1 -15 -27 4
-62 -3 -57 -11 5 -9 -15 -15 -38 -11 -4 1 -12 -11 -17 -25 -9 -23 -12 -24 -27
-13 -11 9 -14 10 -9 2 4 -7 2 -22 -4 -33 -9 -16 -15 -19 -24 -11 -10 8 -17 7
-26 -4 -7 -8 -22 -15 -33 -15 -11 0 -17 -3 -14 -6 7 -7 -42 -49 -58 -49 -5 0
-8 -9 -7 -20 3 -16 2 -17 -12 -6 -9 8 -16 10 -16 6 0 -4 -11 0 -24 8 -22 15
-24 14 -34 -9 -7 -13 -8 -23 -4 -21 4 1 9 -2 12 -7 3 -5 -5 -10 -17 -11 -12
-1 -19 3 -16 8 4 6 1 7 -6 3 -7 -5 -10 -14 -7 -22 3 -8 1 -14 -4 -14 -6 0 -10
5 -10 11 0 8 -4 8 -14 0 -11 -9 -15 -8 -20 4 -4 11 -2 14 6 9 7 -4 8 -3 4 5
-4 6 -11 9 -16 6 -4 -3 -13 1 -19 9 -18 22 -61 8 -61 -20 0 -15 -6 -24 -15
-24 -8 0 -15 -8 -16 -17 0 -15 -2 -15 -9 2 -8 18 -9 18 -9 2 -1 -10 -6 -15
-11 -12 -6 3 -13 -1 -16 -10 -6 -13 -8 -14 -15 -3 -7 10 -11 8 -15 -9 -4 -13
-10 -20 -15 -17 -5 3 -9 0 -9 -6 0 -6 -4 -8 -10 -5 -5 3 -10 1 -10 -5 0 -6 -4
-9 -9 -5 -5 3 -16 -3 -23 -12 -19 -26 -90 -79 -116 -87 -12 -4 -20 -11 -17
-16 3 -4 -5 -6 -17 -2 -13 3 -19 1 -15 -5 4 -6 -15 -9 -48 -9 -30 1 -55 -3
-55 -7 0 -12 -42 -46 -57 -47 -7 0 -13 -7 -13 -16 0 -18 -25 -46 -33 -38 -3 4
-12 2 -19 -2 -7 -5 -17 -9 -23 -9 -5 -1 -9 -7 -7 -14 2 -9 -4 -12 -18 -8 -11
3 -18 1 -15 -3 3 -5 -4 -14 -15 -20 -11 -6 -20 -17 -20 -25 0 -8 -3 -14 -7
-13 -12 3 -54 -22 -91 -53 -44 -39 -64 -37 -24 2 68 67 20 86 -86 34 -39 -19
-59 -35 -56 -44 2 -8 -1 -11 -9 -8 -12 4 -12 -1 -1 -31 8 -24 22 -41 41 -49
15 -7 23 -12 16 -13 -7 0 -12 -21 -12 -57 -1 -54 -42 -268 -51 -268 -12 0 -15
-99 -4 -117 9 -15 11 -19 20 -68 3 -19 8 -37 10 -39 2 -2 -1 -12 -7 -22 -6
-12 -6 -19 0 -19 5 0 7 -9 4 -21 -7 -24 -20 -14 -26 21 -2 14 -5 -1 -7 -32 -3
-65 -2 -62 -19 -103 -19 -50 -45 -100 -55 -107 -6 -4 2 -12 16 -18 37 -17 76
4 115 63 27 41 32 45 38 27 14 -43 21 -17 14 49 -5 47 -3 89 7 132 7 35 19
105 25 154 7 59 22 115 43 162 32 75 40 84 50 57 3 -8 2 -12 -4 -9 -10 6 -15
-13 -12 -45 6 -64 1 -137 -13 -195 -4 -16 -8 -38 -9 -48 0 -11 -6 -15 -15 -12
-10 4 -11 2 -4 -7 5 -7 11 -31 12 -53 2 -22 6 -44 9 -50 10 -16 11 -34 2 -40
-4 -3 -6 -14 -3 -25 4 -13 0 -20 -9 -20 -34 0 -48 -34 -48 -117 0 -59 -4 -84
-15 -93 -8 -7 -15 -24 -15 -38 0 -36 -17 -16 -29 33 -8 34 -9 36 -10 12 -1
-15 6 -41 14 -57 12 -24 22 -30 48 -30 94 0 142 133 106 299 -9 42 -7 61 11
125 11 41 25 113 30 159 10 81 16 100 91 263 11 22 19 46 19 52 0 7 12 12 28
12 19 0 23 -3 13 -9 -8 -5 -11 -16 -8 -25 4 -9 2 -16 -4 -16 -6 0 -8 -4 -5 -9
3 -5 -1 -14 -9 -21 -11 -9 -15 -9 -15 -1 0 7 -4 9 -10 6 -5 -3 -10 -36 -10
-73 0 -37 -4 -82 -9 -99 -7 -22 -5 -52 5 -95 18 -80 53 -186 63 -192 4 -3 0
18 -10 47 -24 67 -23 83 1 107 33 33 75 26 120 -20 22 -22 44 -40 50 -40 13 0
6 63 -13 117 -9 26 -7 48 7 109 10 42 20 97 21 121 2 24 5 47 8 49 3 3 22 1
42 -5 48 -13 111 -1 280 50 395 122 433 140 583 279 31 29 34 30 74 19 49 -13
194 -6 393 18 303 37 960 10 1263 -53 l32 -6 0 443 c-1 375 -3 447 -15 463
-14 19 -15 19 -15 1 0 -10 -3 -15 -7 -12 -3 4 -12 2 -19 -4 -8 -7 -14 -7 -19
1 -10 16 -25 12 -19 -5 4 -8 10 -13 14 -10 4 3 11 -2 14 -10 4 -13 2 -13 -14
-5 -10 5 -22 19 -25 30 -6 20 -35 29 -35 11 0 -6 -8 -8 -17 -7 -35 7 -62 -11
-57 -37 2 -16 -1 -27 -12 -31 -8 -3 -13 -2 -10 3 3 5 -1 14 -8 20 -12 10 -14
8 -10 -11 4 -22 4 -22 -6 2 -18 40 -58 52 -43 12 6 -16 6 -16 -11 1 -20 20
-61 24 -50 5 6 -10 3 -9 -9 0 -9 8 -27 12 -40 10 -13 -1 -33 4 -43 12 -12 9
-15 9 -7 1 6 -7 9 -20 6 -29 -5 -11 -3 -13 8 -7 8 4 11 5 7 0 -4 -4 -3 -14 4
-22 6 -7 8 -16 4 -20 -3 -3 -6 -1 -6 6 0 7 -5 9 -10 6 -6 -4 -9 -3 -8 2 2 4
-1 8 -7 8 -5 0 -9 -4 -7 -10 4 -10 -34 20 -54 43 -10 10 -13 10 -18 -3 -3 -10
-2 -13 4 -10 6 4 9 1 8 -7 -2 -7 2 -12 8 -11 6 1 11 -5 11 -13 0 -10 -10 -6
-30 13 -28 26 -29 26 -25 6 4 -15 2 -20 -8 -16 -8 3 -12 8 -9 12 2 4 -2 8 -10
8 -8 0 -12 -4 -10 -8 3 -4 -2 -10 -11 -13 -8 -3 -12 -11 -8 -17 4 -8 3 -9 -5
-5 -9 6 -9 11 -1 21 7 8 7 15 1 19 -5 3 -11 1 -13 -6 -3 -9 -12 -8 -32 5 -14
10 -31 15 -36 12 -5 -3 -11 3 -15 14 -3 11 -13 25 -22 33 -15 12 -15 11 -3
-12 8 -14 13 -29 12 -33 -1 -4 3 -18 8 -30 8 -16 4 -13 -14 8 -23 27 -32 25
-27 -7 2 -13 -6 -9 -20 9 -8 9 -9 14 -3 10 7 -4 14 1 17 13 4 18 3 18 -17 5
-13 -9 -26 -12 -31 -8 -4 5 -5 -2 -2 -15 3 -12 1 -20 -4 -16 -5 3 -9 11 -9 17
0 7 -10 23 -21 37 -18 23 -19 23 -9 3 6 -13 8 -23 5 -23 -3 0 -1 -8 4 -18 8
-15 6 -18 -7 -17 -25 1 -43 15 -37 26 3 5 -1 6 -10 3 -10 -4 -27 3 -43 17 -14
13 -20 16 -13 7 19 -25 6 -22 -19 4 -15 16 -20 18 -20 7 0 -8 6 -21 13 -29 6
-8 -3 -1 -22 15 -27 24 -33 26 -27 10 6 -18 5 -17 -17 3 -17 16 -27 20 -32 12
-5 -8 -15 -4 -33 12 -14 13 -22 17 -17 9 6 -11 4 -13 -11 -7 -33 14 -73 16
-80 4 -5 -8 -10 -5 -15 8 -7 17 -8 16 -8 -6z m176 -42 c-3 -8 -6 -5 -6 6 -1
11 2 17 5 13 3 -3 4 -12 1 -19z m930 -3 c0 -8 -4 -12 -9 -9 -5 3 -6 10 -3 15
9 13 12 11 12 -6z m115 -10 c3 -13 2 -22 -2 -20 -11 7 -20 45 -10 45 4 0 10
-11 12 -25z m-2050 -394 c8 11 9 11 6 1 -4 -16 -22 -18 -25 -2 -1 7 0 6 4 -1
4 -8 8 -7 15 2z m-1111 -1096 c-6 -45 -9 -51 -10 -24 -1 40 10 110 16 94 1 -6
-1 -37 -6 -70z m6 -97 c-3 -7 -5 -2 -5 12 0 14 2 19 5 13 2 -7 2 -19 0 -25z
m-60 -100 c-3 -8 -6 -5 -6 6 -1 11 2 17 5 13 3 -3 4 -12 1 -19z"/>
<path d="M8960 2540 c0 -5 5 -10 11 -10 5 0 7 5 4 10 -3 6 -8 10 -11 10 -2 0
-4 -4 -4 -10z"/>
<path d="M8716 2513 c-6 -14 -5 -15 5 -6 7 7 10 15 7 18 -3 3 -9 -2 -12 -12z"/>
<path d="M7321 2294 c0 -11 3 -14 6 -6 3 7 2 16 -1 19 -3 4 -6 -2 -5 -13z"/>
<path d="M5507 2154 c-3 -4 -14 -7 -24 -8 -41 -5 -93 -19 -89 -25 2 -3 -16 -6
-40 -5 -25 0 -44 -4 -44 -10 0 -6 -4 -5 -9 3 -6 9 -10 10 -16 2 -4 -8 -11 -9
-18 -3 -7 5 -27 9 -45 7 -19 -1 -36 3 -38 10 -3 7 -23 2 -62 -17 -31 -15 -64
-28 -73 -28 -8 0 -19 -4 -25 -9 -13 -13 -113 -37 -144 -35 -26 2 -71 -37 -51
-44 18 -6 13 -22 -6 -22 -16 -1 -16 -2 1 -15 37 -28 227 -12 321 26 17 7 111
15 215 19 149 6 192 5 225 -7 43 -15 251 -53 291 -53 20 0 24 5 24 29 0 46
-20 54 -87 34 -25 -7 -43 -8 -43 -3 0 14 -34 12 -49 -2 -8 -7 -11 -8 -8 -3 6
12 -33 12 -53 0 -8 -5 -11 -4 -7 2 3 5 0 10 -8 10 -8 0 -11 -5 -8 -11 4 -6 -1
-4 -12 4 -10 8 -20 14 -22 13 -10 -8 -23 -1 -17 10 5 9 4 9 -5 1 -23 -21 -48
-5 -48 29 -1 26 1 28 7 12 4 -11 6 -23 4 -26 -2 -4 2 -9 10 -12 16 -6 30 19
16 28 -6 4 -10 11 -10 16 0 6 5 7 10 4 6 -3 10 1 10 10 0 10 5 13 13 9 6 -4 4
2 -7 14 -10 12 -28 24 -40 28 -11 4 -24 11 -27 15 -3 5 -8 6 -12 3z m68 -43
c3 -5 2 -12 -3 -15 -5 -3 -9 1 -9 9 0 17 3 19 12 6z"/>
<path d="M6446 2078 c3 -5 10 -6 15 -3 13 9 11 12 -6 12 -8 0 -12 -4 -9 -9z"/>
<path d="M6392 2064 c-9 -10 -9 -14 -1 -14 9 0 9 -3 0 -14 -9 -10 -8 -16 4
-26 10 -9 15 -9 15 -1 0 6 -5 11 -10 11 -6 0 -5 6 2 14 9 9 17 11 25 4 9 -7
11 -4 10 11 0 11 -5 17 -10 14 -5 -3 -12 -1 -16 5 -4 6 -11 5 -19 -4z"/>
<path d="M6500 2060 c-6 -11 -15 -18 -19 -16 -4 3 -8 -1 -8 -9 0 -11 3 -12 14
-3 16 13 37 48 29 48 -3 0 -10 -9 -16 -20z"/>
<path d="M5846 2042 c-3 -5 1 -9 9 -9 8 0 12 4 9 9 -3 4 -7 8 -9 8 -2 0 -6 -4
-9 -8z"/>
<path d="M6155 2030 c3 -17 0 -19 -21 -16 -13 3 -22 1 -19 -3 9 -15 48 -6 51
11 1 10 -2 20 -6 23 -5 3 -7 -4 -5 -15z"/>
<path d="M6417 2009 c5 -19 6 -19 20 -2 8 10 11 12 7 4 -5 -9 -3 -12 4 -7 20
12 14 24 -12 24 -18 0 -22 -5 -19 -19z"/>
<path d="M6287 1962 c10 -7 17 -17 16 -22 -2 -5 8 -4 22 2 33 15 15 38 -26 35
-27 -2 -28 -3 -12 -15z m33 -2 c0 -5 -2 -10 -4 -10 -3 0 -8 5 -11 10 -3 6 -1
10 4 10 6 0 11 -4 11 -10z"/>
<path d="M6065 1930 c-10 -11 -15 -23 -12 -27 4 -3 0 -14 -9 -24 -9 -10 -14
-25 -11 -33 4 -11 0 -14 -16 -11 -20 4 -21 3 -5 -9 10 -7 14 -16 11 -20 -4 -4
4 -3 17 2 37 15 250 123 250 127 0 2 -14 0 -30 -5 -17 -5 -28 -5 -25 0 3 4 -2
11 -11 14 -24 9 -36 7 -28 -6 5 -7 3 -8 -7 -2 -8 5 -35 10 -60 11 -36 2 -51
-2 -64 -17z"/>
<path d="M200 1770 c0 -5 -3 -9 -7 -9 -18 3 -33 -2 -33 -10 0 -8 28 -8 38 -1
1 2 7 3 14 4 18 2 22 26 4 26 -9 0 -16 -4 -16 -10z"/>
<path d="M124 1735 c-10 -8 -15 -15 -10 -15 5 0 3 -7 -4 -15 -20 -24 -6 -28
36 -9 22 9 43 16 48 15 5 -1 4 5 -3 13 -14 17 -36 11 -25 -6 4 -7 2 -8 -5 -4
-6 4 -9 11 -6 16 10 16 -12 19 -31 5z m22 -15 c0 -10 -2 -17 -5 -15 -2 3 -11
-1 -19 -8 -11 -9 -11 -4 2 16 22 32 22 32 22 7z"/>
<path d="M4107 1722 c-5 -6 11 -113 17 -120 2 -1 2 27 2 63 -1 59 -7 78 -19
57z"/>
<path d="M3921 1634 c0 -11 3 -14 6 -6 3 7 2 16 -1 19 -3 4 -6 -2 -5 -13z"/>
<path d="M5900 1165 c-7 -20 -10 -39 -7 -42 3 -3 10 12 16 33 14 49 7 56 -9 9z"/>
<path d="M6068 965 c-3 -14 -1 -28 3 -31 5 -3 9 9 9 25 0 38 -6 40 -12 6z"/>
<path d="M6597 904 c-4 -4 1 -13 11 -21 14 -11 15 -12 1 -7 -20 6 -42 -46 -32
-74 6 -15 5 -15 -10 -3 -11 8 -17 9 -17 2 0 -6 11 -18 25 -27 23 -15 27 -15
51 1 23 15 26 22 21 57 -5 40 -37 85 -50 72z"/>
<path d="M6446 842 c-4 -8 -17 -12 -27 -9 -31 8 -22 -2 17 -18 20 -8 46 -15
58 -14 18 0 17 2 -6 10 -15 6 -28 18 -30 27 -3 13 -5 14 -12 4z"/>
<path d="M5810 695 c0 -5 5 -17 10 -25 5 -8 10 -10 10 -5 0 6 -5 17 -10 25 -5
8 -10 11 -10 5z"/>
</g>
</svg>
