<?xml version="1.0" standalone="no"?>
<!DOCTYPE svg PUBLIC "-//W3C//DTD SVG 20010904//EN"
 "http://www.w3.org/TR/2001/REC-SVG-20010904/DTD/svg10.dtd">
<svg version="1.0" xmlns="http://www.w3.org/2000/svg"
 width="364.000000pt" height="422.000000pt" viewBox="0 0 364.000000 422.000000"
 preserveAspectRatio="xMidYMid meet">

<g transform="translate(0.000000,422.000000) scale(0.100000,-0.100000)"
fill="#000000" stroke="none">
<path d="M1310 4140 c-287 -61 -492 -214 -621 -462 -27 -54 -52 -98 -55 -98
-3 0 -15 5 -26 11 -18 10 -25 8 -40 -11 -10 -12 -18 -33 -18 -46 0 -14 -7 -27
-16 -31 -9 -3 -11 -8 -6 -12 7 -4 6 -57 -3 -156 -20 -206 -23 -234 -31 -247
-4 -7 -3 -8 4 -4 7 4 14 -4 17 -21 15 -76 17 -78 74 -83 38 -4 58 -2 67 8 8 7
19 10 26 6 8 -5 9 -2 5 9 -3 9 -9 67 -13 129 -8 141 10 348 35 400 10 21 15
35 10 32 -5 -2 -17 4 -29 16 l-20 20 30 66 c50 111 155 245 180 229 6 -4 50
16 98 43 100 57 168 92 179 92 4 0 -7 -9 -24 -20 -18 -11 -33 -22 -33 -25 0
-2 16 5 35 16 19 12 35 25 35 31 0 5 4 7 9 4 12 -8 74 14 87 31 30 36 286 56
420 33 104 -19 204 -52 215 -72 5 -10 24 -25 42 -33 l32 -16 -25 21 c-56 47
77 -29 159 -92 143 -108 150 -113 163 -100 9 9 1 23 -32 58 -136 140 -326 240
-530 278 -111 21 -292 20 -400 -4z"/>
<path d="M1980 3976 c0 -3 9 -10 20 -16 11 -6 20 -8 20 -6 0 3 -9 10 -20 16
-11 6 -20 8 -20 6z"/>
<path d="M2030 3946 c0 -2 8 -10 18 -17 15 -13 16 -12 3 4 -13 16 -21 21 -21
13z"/>
<path d="M2155 3830 c33 -33 62 -60 64 -60 3 0 -21 27 -54 60 -33 33 -62 60
-64 60 -3 0 21 -27 54 -60z"/>
<path d="M904 3838 l-29 -33 33 29 c30 28 37 36 29 36 -2 0 -16 -15 -33 -32z"/>
<path d="M2361 3494 c0 -11 3 -14 6 -6 3 7 2 16 -1 19 -3 4 -6 -2 -5 -13z"/>
<path d="M2422 3463 c-19 -22 -25 -23 -39 -12 -15 13 -16 11 -10 -11 7 -25
-37 -470 -52 -525 -11 -43 -5 -57 19 -42 16 9 22 8 33 -6 10 -14 24 -18 67
-15 l55 3 6 38 c3 20 8 38 10 40 2 1 13 7 24 13 11 6 21 19 23 28 3 15 47 66
57 66 3 0 -5 -26 -16 -57 -31 -83 -99 -174 -171 -229 -68 -51 -222 -129 -237
-119 -5 3 -12 1 -15 -4 -4 -5 -25 -12 -49 -16 -23 -3 -50 -9 -59 -11 -10 -3
-18 -1 -18 5 0 6 7 11 15 11 9 0 18 8 22 18 3 9 13 25 21 34 28 33 8 61 -55
80 -32 10 -78 19 -103 20 -25 1 -49 3 -53 6 -15 8 15 32 49 38 19 3 34 10 34
15 0 5 5 9 11 9 6 0 39 13 73 29 88 43 97 61 103 231 l6 139 -30 29 c-20 21
-46 33 -84 41 -84 17 -379 50 -534 61 -191 13 -574 14 -605 2 -55 -21 -63 -43
-73 -187 -11 -159 0 -194 68 -232 142 -79 462 -141 740 -144 77 -1 109 -4 90
-9 -16 -4 -47 -8 -67 -9 -21 0 -38 -5 -38 -9 0 -5 -24 -14 -54 -21 -61 -14
-146 -63 -146 -86 0 -8 -5 -15 -10 -15 -6 0 -10 -6 -9 -12 2 -7 -1 -28 -5 -46
-4 -19 -9 -45 -11 -59 -2 -22 -18 -41 -35 -41 -3 -1 -18 -6 -35 -12 -30 -12
-104 -23 -160 -24 -33 -1 -35 4 -53 134 l-9 65 -2 -77 c-1 -75 -5 -84 -33 -79
-5 0 -8 -4 -8 -9 0 -7 -7 -7 -22 0 -21 10 -22 10 -5 -4 11 -8 25 -12 32 -10 7
3 16 0 21 -7 4 -8 3 -10 -4 -5 -7 4 -12 5 -12 2 0 -11 61 -37 72 -30 6 4 8 3
4 -4 -6 -10 37 -29 137 -62 47 -15 46 -40 0 -52 -18 -5 -35 -13 -38 -18 -4 -6
-3 -10 2 -9 4 1 15 -1 23 -4 37 -15 278 -38 332 -32 59 7 78 27 38 40 -11 3
-20 15 -20 25 0 15 12 21 58 30 92 19 212 61 205 73 -3 5 -1 7 5 4 15 -10 43
3 35 16 -3 6 -1 7 6 3 6 -4 41 12 79 37 42 27 89 48 125 56 206 44 406 192
491 361 20 40 36 81 36 91 0 10 9 27 20 37 15 14 21 37 26 105 l7 86 -27 11
c-15 5 -38 10 -52 10 -14 0 -24 6 -24 15 0 8 -10 19 -21 26 -12 6 -19 7 -16 2
8 -14 -12 -226 -23 -237 -7 -7 -10 19 -11 80 -1 117 -9 296 -13 310 -3 6 -18
13 -35 16 -16 2 -28 1 -25 -4 3 -4 0 -8 -6 -8 -6 0 -14 9 -18 19 -7 19 -8 19
-30 -6z m-1128 -294 c15 -12 26 -30 26 -44 0 -24 -42 -65 -67 -65 -19 0 -63
45 -63 65 0 20 44 65 63 65 8 0 26 -9 41 -21z m500 -41 c21 -30 20 -54 -4 -78
-39 -39 -100 -14 -100 41 0 56 73 82 104 37z m25 -340 c-1 -16 -3 -18 -6 -6
-2 9 -12 19 -21 21 -12 3 -10 5 6 6 17 1 22 -4 21 -21z m205 -282 c-10 -8 -21
-12 -24 -10 -5 6 21 24 34 24 6 0 1 -6 -10 -14z"/>
<path d="M472 3428 c-14 -18 -32 -121 -32 -189 0 -43 5 -62 21 -80 l20 -24 -5
45 c-2 25 -1 92 4 149 5 58 8 106 6 108 -2 2 -8 -2 -14 -9z"/>
<path d="M481 3114 c0 -11 3 -14 6 -6 3 7 2 16 -1 19 -3 4 -6 -2 -5 -13z"/>
<path d="M3080 3033 c0 -6 7 -16 15 -23 11 -9 12 -16 5 -25 -8 -10 -4 -15 19
-20 31 -7 51 -1 51 15 0 5 -13 11 -30 15 -16 4 -37 16 -45 28 -8 12 -15 16
-15 10z"/>
<path d="M691 2964 c0 -11 3 -14 6 -6 3 7 2 16 -1 19 -3 4 -6 -2 -5 -13z"/>
<path d="M3064 2859 c1 -18 9 -25 40 -31 22 -5 43 -5 48 0 10 10 -28 38 -65
47 -21 6 -24 3 -23 -16z"/>
<path d="M2311 2834 c0 -11 3 -14 6 -6 3 7 2 16 -1 19 -3 4 -6 -2 -5 -13z"/>
<path d="M2940 2836 c0 -2 7 -7 16 -10 8 -3 12 -2 9 4 -6 10 -25 14 -25 6z"/>
<path d="M2290 2790 c-6 -11 -8 -20 -6 -20 3 0 10 9 16 20 6 11 8 20 6 20 -3
0 -10 -9 -16 -20z"/>
<path d="M2869 2773 l-34 -38 38 34 c20 19 37 36 37 38 0 8 -8 0 -41 -34z"/>
<path d="M2971 2804 c-1 -8 -44 -80 -67 -113 -2 -2 -15 7 -31 18 -26 21 -28
21 -34 4 -5 -13 0 -21 17 -27 47 -19 26 -90 -31 -100 -32 -6 -34 -9 -24 -27
10 -19 12 -19 35 -4 24 15 26 15 55 -9 34 -29 51 -33 43 -12 -3 8 -19 20 -35
26 -32 13 -36 25 -16 37 18 11 30 43 28 71 -1 12 2 22 8 22 19 0 63 77 58 102
-2 13 -5 18 -6 12z"/>
<path d="M2239 2713 c-13 -16 -12 -17 4 -4 16 13 21 21 13 21 -2 0 -10 -8 -17
-17z"/>
<path d="M2970 2705 c-8 -9 -3 -14 20 -18 37 -8 38 -22 4 -88 -14 -28 -23 -53
-20 -56 10 -10 28 11 53 63 29 61 43 66 94 31 40 -27 48 -61 24 -106 -15 -29
-15 -31 4 -31 11 0 33 8 50 18 25 14 34 15 51 5 28 -18 47 -16 70 7 22 22 25
46 10 70 -7 12 -13 9 -30 -13 -30 -38 -46 -34 -54 13 -6 40 -7 40 -28 25 -32
-22 -46 -19 -63 15 -9 17 -23 30 -35 30 -26 0 -34 17 -18 38 10 12 4 11 -24
-5 -30 -18 -39 -19 -48 -8 -16 19 -48 25 -60 10z"/>
<path d="M820 2706 c0 -2 8 -10 18 -17 15 -13 16 -12 3 4 -13 16 -21 21 -21
13z"/>
<path d="M870 2645 c13 -14 26 -25 28 -25 3 0 -5 11 -18 25 -13 14 -26 25 -28
25 -3 0 5 -11 18 -25z"/>
<path d="M940 2575 c13 -14 26 -25 28 -25 3 0 -5 11 -18 25 -13 14 -26 25 -28
25 -3 0 5 -11 18 -25z"/>
<path d="M992 2534 c10 -10 20 -16 22 -13 3 3 -5 11 -17 18 -21 13 -21 12 -5
-5z"/>
<path d="M2820 2486 c0 -2 8 -10 18 -17 15 -13 16 -12 3 4 -13 16 -21 21 -21
13z"/>
<path d="M2869 2428 c7 -9 9 -23 5 -30 -6 -10 -4 -11 7 0 11 10 10 15 -6 30
-17 15 -18 15 -6 0z"/>
<path d="M2844 2369 c-11 -18 -14 -33 -21 -96 -5 -48 -3 -54 25 -83 37 -37 59
-40 36 -5 -15 23 -15 27 0 51 10 14 23 27 31 30 22 9 80 -14 135 -52 58 -40
97 -45 102 -12 2 12 10 24 18 26 12 4 13 3 2 -10 -10 -13 -9 -15 13 -10 24 4
24 5 8 16 -10 7 -52 18 -93 24 -91 15 -208 69 -231 108 -13 21 -18 23 -25 13z"/>
<path d="M1240 2278 c0 -30 -61 -58 -126 -58 -59 0 -59 0 -30 -15 62 -33 723
-32 723 0 0 9 -19 16 -54 21 -45 5 -53 10 -54 28 -1 12 -3 15 -5 6 -4 -13 -33
-15 -192 -14 -183 1 -236 9 -254 37 -5 8 -8 7 -8 -5z"/>
<path d="M1028 2213 c7 -3 16 -2 19 1 4 3 -2 6 -13 5 -11 0 -14 -3 -6 -6z"/>
<path d="M1850 2210 c14 -4 36 -8 50 -8 22 0 22 1 -5 8 -16 4 -39 8 -50 8 -16
0 -15 -2 5 -8z"/>
<path d="M978 2203 c6 -2 18 -2 25 0 6 3 1 5 -13 5 -14 0 -19 -2 -12 -5z"/>
<path d="M938 2193 c7 -3 16 -2 19 1 4 3 -2 6 -13 5 -11 0 -14 -3 -6 -6z"/>
<path d="M1938 2193 c7 -3 16 -2 19 1 4 3 -2 6 -13 5 -11 0 -14 -3 -6 -6z"/>
<path d="M783 2105 c-49 -21 -55 -42 -32 -116 15 -46 19 -81 16 -125 -6 -76
-28 -110 -82 -125 -36 -10 -45 -9 -86 14 -31 17 -50 22 -60 16 -8 -5 -9 -9 -3
-9 14 0 34 -44 34 -74 0 -37 35 -72 85 -86 45 -13 47 -12 91 19 24 17 47 31
50 31 9 0 -15 -37 -41 -61 -38 -35 -60 -84 -80 -174 -9 -44 -22 -86 -28 -93
-8 -11 0 -12 44 -5 30 4 77 8 104 7 28 0 42 1 32 4 -12 2 -16 10 -12 21 3 9 7
55 10 101 2 47 9 116 14 155 8 58 8 74 -5 93 -14 21 -13 25 13 57 15 18 33 32
40 30 7 -3 4 10 -7 30 -28 50 -49 130 -57 222 l-8 81 -32 -13z"/>
<path d="M2055 2082 c-14 -21 -39 -82 -56 -136 -17 -54 -33 -95 -36 -92 -3 3
-31 -15 -62 -39 -72 -56 -117 -75 -276 -114 -132 -33 -208 -55 -257 -73 -29
-11 -38 -36 -15 -42 39 -9 189 -62 232 -82 28 -13 63 -24 79 -26 34 -3 42 -33
19 -64 -11 -15 -26 -19 -71 -18 -31 1 -120 3 -197 5 -133 3 -228 -9 -381 -47
-19 -5 -23 -1 -27 23 l-4 28 1 -30 c1 -23 6 -31 24 -33 12 -2 22 -9 22 -17 0
-17 74 -83 108 -96 21 -8 23 -12 12 -20 -10 -6 3 -6 35 -1 58 8 80 8 310 -3
l170 -8 2 -43 c1 -24 2 -50 2 -56 4 -42 -16 -82 -65 -134 -50 -52 -57 -56 -89
-51 -19 3 -74 24 -122 47 -79 39 -226 80 -238 68 -3 -3 2 -22 10 -44 12 -31
13 -35 2 -21 -13 16 -16 13 -26 -29 -14 -57 -83 -136 -102 -117 -12 12 -13 11
38 82 33 46 14 202 -29 244 -7 7 -31 26 -52 42 -33 25 -38 27 -32 10 56 -134
59 -256 8 -260 -13 -1 -27 5 -32 14 -8 13 -10 11 -11 -9 -3 -31 -2 -32 17
-160 10 -70 13 -131 9 -183 -4 -43 -3 -77 1 -75 5 1 19 -4 32 -11 26 -14 52
-1 52 25 0 19 13 17 57 -8 51 -31 150 -32 209 -2 l42 20 28 -20 c34 -25 135
-34 187 -17 19 7 47 23 62 37 l28 26 -6 -30 c-3 -16 -9 -52 -13 -80 -6 -50 -7
-50 -48 -56 -38 -6 -328 -29 -521 -42 -71 -5 -135 -19 -135 -30 0 -3 4 -12 9
-22 5 -9 12 -24 14 -32 3 -9 131 -72 305 -149 l301 -134 138 6 c129 5 197 11
618 52 88 8 261 24 385 35 124 12 293 27 375 35 83 7 233 21 335 30 102 10
191 22 198 27 9 8 12 178 12 790 l0 779 -32 -5 c-40 -6 -608 -19 -608 -13 0 2
7 25 16 51 9 26 14 50 10 53 -3 3 2 12 12 19 15 11 14 12 -11 11 -21 -2 -41
-17 -78 -59 -28 -32 -48 -62 -45 -67 7 -10 -76 -21 -171 -21 l-73 0 0 45 c0
25 -4 45 -8 45 -15 0 -43 -37 -51 -66 -7 -28 -10 -29 -82 -35 -41 -4 -113 -7
-162 -8 -80 -1 -86 0 -78 17 37 69 56 192 30 192 -6 0 -28 -15 -49 -34 -53
-48 -124 -88 -144 -80 -39 15 -34 85 14 192 33 72 33 72 74 74 l41 1 -40 6
c-22 3 -59 16 -82 29 l-43 22 -25 -38z m-22 -296 c9 -19 30 -45 47 -57 16 -13
30 -26 30 -31 0 -4 -34 -8 -75 -8 -59 0 -75 3 -75 14 0 8 4 17 9 20 4 3 14 26
21 51 7 25 16 45 19 45 4 0 15 -15 24 -34z m-283 -636 c6 -12 10 -33 8 -48 -3
-24 -5 -22 -20 21 -17 47 -8 65 12 27z m-12 -157 c-4 -22 -22 -20 -26 1 -2 10
3 16 13 16 10 0 15 -7 13 -17z m-394 -149 c16 -19 25 -38 22 -42 -7 -7 -65 56
-66 71 0 15 16 4 44 -29z"/>
<path d="M2377 1939 c7 -7 15 -10 18 -7 3 3 -2 9 -12 12 -14 6 -15 5 -6 -5z"/>
<path d="M2671 1874 c0 -11 3 -14 6 -6 3 7 2 16 -1 19 -3 4 -6 -2 -5 -13z"/>
<path d="M2655 1830 c-3 -5 -1 -10 4 -10 6 0 11 5 11 10 0 6 -2 10 -4 10 -3 0
-8 -4 -11 -10z"/>
<path d="M982 1590 c0 -14 2 -19 5 -12 2 6 2 18 0 25 -3 6 -5 1 -5 -13z"/>
<path d="M118 1483 c7 -3 16 -2 19 1 4 3 -2 6 -13 5 -11 0 -14 -3 -6 -6z"/>
<path d="M560 1250 c0 -5 5 -10 10 -10 6 0 10 5 10 10 0 6 -4 10 -10 10 -5 0
-10 -4 -10 -10z"/>
<path d="M1104 1184 c-18 -14 -18 -14 6 -3 31 14 36 19 24 19 -6 0 -19 -7 -30
-16z"/>
<path d="M620 1136 c0 -2 16 -48 36 -102 92 -251 126 -393 127 -534 1 -96 -2
-123 -19 -165 -33 -77 -37 -94 -14 -53 19 36 23 38 71 38 27 0 65 -7 84 -14
19 -8 36 -14 36 -13 1 1 3 13 4 27 1 14 5 48 8 75 l6 50 -13 -55 c-8 -30 -14
-49 -15 -41 -1 10 -4 11 -15 2 -34 -29 -55 51 -66 255 -5 95 -16 199 -25 235
-26 103 -78 200 -134 252 -43 40 -71 57 -71 43z"/>
<path d="M961 498 c0 -9 -4 -25 -7 -35 -5 -14 -4 -15 5 -7 7 7 11 22 8 35 -2
13 -5 16 -6 7z"/>
<path d="M40 216 c0 -2 8 -10 18 -17 15 -13 16 -12 3 4 -13 16 -21 21 -21 13z"/>
<path d="M692 175 c-12 -25 -20 -45 -17 -45 7 0 47 81 43 86 -3 2 -14 -17 -26
-41z"/>
<path d="M110 145 c13 -14 26 -25 28 -25 3 0 -5 11 -18 25 -13 14 -26 25 -28
25 -3 0 5 -11 18 -25z"/>
<path d="M626 72 c-36 -42 -36 -44 -7 -17 28 25 58 66 49 65 -2 -1 -21 -22
-42 -48z"/>
<path d="M210 56 c0 -2 8 -10 18 -17 15 -13 16 -12 3 4 -13 16 -21 21 -21 13z"/>
<path d="M538 13 c7 -3 16 -2 19 1 4 3 -2 6 -13 5 -11 0 -14 -3 -6 -6z"/>
</g>
</svg>
