<svg version="1.1" id="Layer_1" xmlns="http://www.w3.org/2000/svg" xmlns:xlink="http://www.w3.org/1999/xlink" x="0px" y="0px"
	 width="100%" viewBox="0 0 721 418" enable-background="new 0 0 721 418" xml:space="preserve">
<path fill="#FDFFFD" opacity="1.000000" stroke="none" 
	d="
M530.000000,419.000000 
	C354.833344,419.000000 180.166656,418.986023 5.500058,419.093811 
	C1.750694,419.096130 0.902757,418.249451 0.905840,414.499908 
	C1.017925,278.166656 1.017925,141.833313 0.905840,5.500077 
	C0.902757,1.750561 1.750811,0.904959 5.500041,0.906598 
	C242.833328,1.010329 480.166656,1.010329 717.499939,0.906598 
	C721.249207,0.904959 722.097229,1.750561 722.094177,5.500077 
	C721.982117,141.833313 721.982117,278.166656 722.094177,414.499908 
	C722.097290,418.249451 721.250305,419.104248 717.499817,419.096130 
	C655.166748,418.961243 592.833313,419.000000 530.000000,419.000000 
z"/>
<path fill="#7AB652" opacity="1.000000" stroke="none" 
	d="
M103.549698,403.533508 
	C85.942879,403.369598 68.794762,403.187042 51.682674,401.883057 
	C48.752407,401.659760 47.191444,400.850616 46.658428,397.291351 
	C44.930767,385.754700 43.669926,374.219604 43.682198,362.545105 
	C43.770321,278.718781 43.839588,194.892456 43.904278,111.066139 
	C43.915585,96.416283 42.732323,81.786934 43.833569,67.108109 
	C44.457161,58.796070 45.590805,50.610046 46.917988,42.405121 
	C47.521587,38.673565 50.379871,38.586151 52.746750,38.030872 
	C63.570263,35.491615 74.504921,35.497890 85.449936,37.277237 
	C88.069725,37.703140 90.661209,38.648598 93.275848,38.688313 
	C98.616592,38.769444 99.665207,41.668377 99.923759,46.374397 
	C101.717072,79.016640 100.760643,111.679741 100.853630,144.331131 
	C101.014984,200.992477 100.868217,257.654663 100.897728,314.316498 
	C100.902336,323.159637 102.613152,331.833832 103.796837,340.561554 
	C104.088676,342.713470 105.165779,343.372223 106.878693,343.769684 
	C123.223686,347.562042 139.669128,349.410065 156.338348,346.085907 
	C165.808731,344.197357 170.175858,338.476044 170.843582,327.022705 
	C171.153778,321.702179 171.307129,316.364410 171.300278,311.034790 
	C171.256165,276.704437 171.110291,242.374191 171.102798,208.043869 
	C171.101700,203.063049 171.448196,198.057724 172.010956,193.106583 
	C173.000763,184.398346 178.477539,180.051346 189.645721,178.800934 
	C198.476242,177.812225 207.216614,178.359695 215.976181,179.929184 
	C220.928299,180.816483 223.477066,183.695953 225.101288,188.029297 
	C227.137634,193.462219 226.900131,199.149979 227.186798,204.794693 
	C228.294891,226.615158 227.467163,248.425232 226.953033,270.238983 
	C226.414795,293.075470 227.058914,315.864624 229.789429,338.570862 
	C230.116638,341.291962 230.801025,343.049408 233.880341,343.872314 
	C253.025085,348.988464 272.140167,347.669434 291.296112,344.101074 
	C293.641113,343.664246 294.036530,341.850647 294.421326,340.094482 
	C296.525269,330.492340 298.315979,320.859741 298.295898,310.953766 
	C298.130981,229.627380 298.018341,148.300903 297.891510,66.974449 
	C297.883209,61.644695 298.167175,56.341499 298.619720,51.019825 
	C299.154327,44.733791 302.328735,41.055717 307.975800,38.777592 
	C317.507202,34.932446 327.226074,35.811207 336.999695,37.171116 
	C340.616791,37.674404 344.203766,38.537605 347.833740,38.760536 
	C350.787445,38.941933 351.866913,40.212883 352.207092,42.991894 
	C353.624481,54.570610 355.121368,66.134232 355.110931,77.833214 
	C355.034149,163.826141 354.921265,249.819092 354.944763,335.812012 
	C354.949951,354.804169 355.925934,373.826630 352.659424,392.664001 
	C351.051910,401.934174 353.181122,400.918640 342.830414,402.157715 
	C320.592651,404.819733 298.288361,404.363190 275.976746,403.479553 
	C272.148376,403.327942 268.315399,403.214844 264.484558,403.214813 
	C212.822571,403.214447 161.160583,403.235077 109.498604,403.263763 
	C107.668755,403.264771 105.838982,403.402802 103.549698,403.533508 
z"/>
<path fill="#7AB753" opacity="1.000000" stroke="none" 
	d="
M581.000000,35.923874 
	C606.481689,35.899269 631.463440,35.875458 656.445129,35.849953 
	C663.443115,35.842812 670.405579,36.243008 677.254089,37.796951 
	C686.656616,39.930405 689.859436,43.799198 691.046814,53.491589 
	C692.259521,63.390091 690.901184,73.044693 688.801575,82.640259 
	C686.799072,91.792229 686.694519,91.758598 677.153259,91.980667 
	C606.716003,93.619980 536.269714,92.462776 465.827850,92.624893 
	C458.513580,92.641731 451.199646,91.973221 443.881744,91.743698 
	C441.717499,91.675812 440.693481,90.925026 440.104095,88.727203 
	C435.968811,73.307167 435.112793,57.946835 439.963135,42.479130 
	C440.747192,39.978668 441.881927,39.150017 444.330994,38.681416 
	C453.674133,36.893688 463.057831,35.796120 472.578918,35.811409 
	C508.552582,35.869183 544.526306,35.889618 581.000000,35.923874 
z"/>
<path fill="#7AB753" opacity="1.000000" stroke="none" 
	d="
M580.996338,403.212524 
	C544.676697,403.498718 508.856110,403.964752 473.035675,403.954620 
	C463.589539,403.951935 454.146790,402.440033 444.696136,401.702637 
	C441.617371,401.462372 440.064331,400.064056 439.528076,396.927795 
	C437.735260,386.442139 435.234436,376.086761 437.170776,365.264862 
	C439.396606,352.825073 444.842255,347.734528 457.601471,347.302032 
	C463.427979,347.104553 469.265350,347.210663 475.097809,347.210358 
	C526.091003,347.207550 577.084473,347.121674 628.077271,347.261993 
	C646.398499,347.312408 664.718445,347.907074 683.038574,348.271118 
	C684.797058,348.306061 686.742920,347.868805 687.315857,350.497742 
	C690.112427,363.329437 692.714966,376.082581 690.395081,389.412231 
	C689.111389,396.788330 684.812195,400.339417 678.234131,402.140594 
	C672.584412,403.687531 666.801025,404.179962 660.960571,404.113922 
	C634.472229,403.814453 607.983887,403.514252 580.996338,403.212524 
z"/>
<path fill="#79B652" opacity="1.000000" stroke="none" 
	d="
M584.000000,248.283447 
	C542.201172,248.275070 500.902252,248.216110 459.603546,248.284286 
	C444.509766,248.309204 438.829651,244.257523 436.479736,227.040955 
	C435.157715,217.355011 437.711456,207.847778 439.634766,198.381699 
	C440.046936,196.353119 441.493164,195.851349 443.144653,195.364243 
	C450.687469,193.139557 458.355652,191.679993 466.242584,191.678726 
	C531.354492,191.668259 596.466370,191.670029 661.578247,191.690018 
	C669.772949,191.692535 677.739258,193.573868 685.782715,194.814087 
	C687.981323,195.153122 688.651123,196.459793 689.052673,198.521637 
	C691.829041,212.776443 691.359863,226.911728 688.073242,241.030914 
	C687.466553,243.636856 686.539978,244.886581 683.685303,245.410614 
	C673.177185,247.339554 662.633118,248.393509 651.944031,248.346436 
	C629.463013,248.247437 606.981384,248.295486 584.000000,248.283447 
z"/>
</svg>